Coordinates
version=1
nRows=26
nColumns=22
inDegrees=yes

Units are S.I. units (second, meters, Newtons, ...)
If the header above contains a line with 'inDegrees', this indicates whether rotational values are in degrees (yes) or radians (no).

endheader
time	pelvis_tilt	pelvis_list	pelvis_rotation	pelvis_tx	pelvis_ty	pelvis_tz	hip_flexion_r	hip_adduction_r	hip_rotation_r	knee_angle_r	ankle_angle_r	subtalar_angle_r	hip_flexion_l	hip_adduction_l	hip_rotation_l	knee_angle_l	ankle_angle_l	subtalar_angle_l	lumbar_extension	lumbar_bending	lumbar_rotation
      1.32000000	    -11.62588040	      0.98998542	    -33.60630117	     -0.85212240	      0.94703960	     -0.08099852	      6.84130608	      9.65309768	      2.60363047	    -21.63677074	     28.15972607	    -10.36125201	     44.71668441	     -5.58910689	     -3.00630721	    -28.67036853	     13.52883629	      3.70732166	     -3.92276338	      5.77580212	     12.34109298
      1.33000000	    -11.72603028	      0.90245704	    -33.87341452	     -0.84582796	      0.94578440	     -0.07788239	      6.44777099	      9.71393286	      2.84324700	    -21.72620677	     28.31054521	    -10.14397878	     44.75036551	     -5.89276094	     -3.71479150	    -28.51872667	     13.61892403	      3.63187127	     -3.90988079	      5.91000389	     12.53900227
      1.34000000	    -11.74585779	      0.82049850	    -34.10129661	     -0.83918616	      0.94470504	     -0.07471533	      5.94991580	      9.69585991	      3.04109293	    -21.78187483	     28.42818558	     -9.59146093	     44.66029411	     -6.11809238	     -4.44100192	    -28.45212996	     13.63047847	      3.39654602	     -3.94196396	      5.98332431	     12.66894576
      1.35000000	    -11.81368629	      0.71776130	    -34.30474451	     -0.83237283	      0.94356993	     -0.07153222	      5.49537255	      9.71197247	      3.20544177	    -21.87803160	     28.52040898	     -9.12129056	     44.61255432	     -6.35206571	     -5.08303505	    -28.56257325	     13.54487530	      3.07710906	     -3.92641685	      6.10781586	     12.77703762
      1.36000000	    -11.87596018	      0.62150535	    -34.46970320	     -0.82531557	      0.94248227	     -0.06833533	      5.03867763	      9.70690223	      3.36037224	    -21.99375047	     28.56006849	     -8.63690802	     44.55386008	     -6.53562904	     -5.63244902	    -28.81945064	     13.35072969	      2.66216196	     -3.88902861	      6.22129860	     12.81343916
      1.37000000	    -11.93652971	      0.53137818	    -34.59830710	     -0.81800852	      0.94147128	     -0.06512270	      4.57542096	      9.68663407	      3.51850227	    -22.11230673	     28.53608456	     -8.11324186	     44.48744857	     -6.66910522	     -6.06137851	    -29.21047944	     13.02669882	      2.15039106	     -3.82357572	      6.32632182	     12.81042709
      1.38000000	    -11.97037975	      0.45369196	    -34.64933954	     -0.81042445	      0.94056162	     -0.06198303	      4.12015406	      9.61874598	      3.57388969	    -22.28491538	     28.48302462	     -7.48701295	     44.40917365	     -6.69536332	     -6.28204075	    -29.73189659	     12.53285153	      1.49816445	     -3.75172499	      6.40256128	     12.71296470
      1.39000000	    -11.98240196	      0.38884905	    -34.64562377	     -0.80259166	      0.93977794	     -0.05887266	      3.67010366	      9.52180740	      3.61715601	    -22.50021899	     28.35993613	     -6.83366548	     44.32820933	     -6.64158790	     -6.33466035	    -30.37428359	     11.96552809	      0.81034736	     -3.66975077	      6.45098774	     12.55209043
      1.40000000	    -11.95648763	      0.33732877	    -34.58881328	     -0.79451632	      0.93916330	     -0.05579707	      3.22566740	      9.38859523	      3.64242182	    -22.78443000	     28.17202398	     -6.14986605	     44.23113268	     -6.50100800	     -6.21982545	    -31.11332507	     11.36321149	      0.12725514	     -3.59574728	      6.45945151	     12.33689263
      1.41000000	    -11.88565581	      0.29529573	    -34.50137108	     -0.78619800	      0.93874990	     -0.05268970	      2.77231973	      9.21671891	      3.63332221	    -23.12497395	     27.93845941	     -5.36769518	     44.11183429	     -6.30420808	     -6.01133971	    -31.94186050	     10.80043786	     -0.57794885	     -3.53537351	      6.42034013	     12.12138700
      1.42000000	    -11.76756710	      0.26052423	    -34.36473406	     -0.77765160	      0.93855830	     -0.04960451	      2.32007782	      9.01459107	      3.61069467	    -23.54148494	     27.60900242	     -4.55541367	     43.95594059	     -6.03048561	     -5.68709046	    -32.80776634	     10.33532657	     -1.21074860	     -3.49755539	      6.33883416	     11.86668308
      1.43000000	    -11.60237908	      0.24744408	    -34.20442936	     -0.76889730	      0.93859798	     -0.04651065	      1.88260366	      8.77034570	      3.59759286	    -24.04402069	     27.19828161	     -3.64744571	     43.74782622	     -5.69044403	     -5.30895960	    -33.66622975	     10.00743048	     -1.81027810	     -3.47448251	      6.20159094	     11.61247640
      1.44000000	    -11.40063220	      0.23560656	    -33.99808677	     -0.75994251	      0.93883172	     -0.04346155	      1.47225387	      8.50051733	      3.50994853	    -24.65066367	     26.72170271	     -2.74388126	     43.49018465	     -5.29078156	     -4.88185191	    -34.50616198	      9.83776640	     -2.32441233	     -3.47061533	      6.03835061	     11.35061834
      1.45000000	    -11.17418099	      0.25503659	    -33.78513589	     -0.75082891	      0.93925932	     -0.04041094	      1.11872974	      8.18864639	      3.40790915	    -25.36296456	     26.15754627	     -1.73571348	     43.17067190	     -4.84617435	     -4.48709744	    -35.26929578	      9.80891054	     -2.83165925	     -3.45624775	      5.82695750	     11.10781740
      1.46000000	    -10.94194318	      0.30436880	    -33.57175611	     -0.74160786	      0.93983134	     -0.03737204	      0.85768469	      7.84414732	      3.27435135	    -26.21091376	     25.49893798	     -0.64639827	     42.79705653	     -4.37606230	     -4.15397126	    -35.93582180	      9.93142833	     -3.33433439	     -3.41777940	      5.58225481	     10.89926942
      1.47000000	    -10.72946652	      0.38415286	    -33.38119274	     -0.73233202	      0.94051169	     -0.03431761	      0.71749814	      7.48203825	      3.14494858	    -27.19897597	     24.72711447	      0.55205945	     42.38323179	     -3.91638541	     -3.92373133	    -36.49457310	     10.21560389	     -3.85197315	     -3.33098714	      5.32078564	     10.73694014
      1.48000000	    -10.54231738	      0.48942090	    -33.18465980	     -0.72303911	      0.94127614	     -0.03133782	      0.72310310	      7.09941025	      2.94030353	    -28.35252620	     23.84778546	      1.76353832	     41.93155121	     -3.44397871	     -3.74184394	    -36.92797854	     10.60164507	     -4.35528897	     -3.20208248	      5.05308709	     10.60811574
      1.49000000	    -10.39722495	      0.62330380	    -33.00290786	     -0.71378982	      0.94210077	     -0.02839480	      0.89465367	      6.70625277	      2.71250012	    -29.67269073	     22.82969913	      3.01857130	     41.45777006	     -2.98588381	     -3.63116114	    -37.23773375	     11.07729503	     -4.84963897	     -3.01404247	      4.78401660	     10.52140055
      1.50000000	    -10.29502932	      0.79023043	    -32.83839764	     -0.70463199	      0.94296325	     -0.02549717	      1.24834002	      6.29310564	      2.44887874	    -31.17429473	     21.67146837	      4.25454221	     40.97499436	     -2.54615820	     -3.60125174	    -37.43577777	     11.61195481	     -5.31672986	     -2.76890997	      4.51022130	     10.46240134
      1.51000000	    -10.23767542	      0.98167210	    -32.70120044	     -0.69561632	      0.94386531	     -0.02264417	      1.78322568	      5.87023070	      2.18767695	    -32.85223583	     20.35655338	      5.45640714	     40.48723975	     -2.13417298	     -3.62457633	    -37.52888169	     12.17577614	     -5.74549749	     -2.47703673	      4.24003377	     10.44561167
      1.52000000	    -10.20001637	      1.22436962	    -32.59832452	     -0.68677378	      0.94480903	     -0.01984777	      2.50537019	      5.39132324	      1.91517272	    -34.72372568	     18.89669447	      6.40914615	     39.98775052	     -1.72093977	     -3.71713958	    -37.51253686	     12.68547766	     -6.07217947	     -2.15266013	      3.93053701	     10.47964511
      1.53000000	    -10.21197562	      1.44725799	    -32.50875592	     -0.67809815	      0.94573476	     -0.01710523	      3.37369092	      4.94740552	      1.68107010	    -36.73585742	     17.33532297	      7.46245000	     39.51185732	     -1.37138223	     -3.83680339	    -37.46778285	     13.29851863	     -6.42575996	     -1.81111427	      3.67353959	     10.49709313
      1.54000000	    -10.21617243	      1.70226180	    -32.44248221	     -0.66960700	      0.94669943	     -0.01445117	      4.38222618	      4.44965160	      1.45749249	    -38.90620052	     15.68955696	      8.21119504	     39.01142097	     -1.00868134	     -3.98682989	    -37.34118803	     13.82761992	     -6.67250402	     -1.48295602	      3.38208332	     10.55105230
      1.55000000	    -10.17844809	      1.97954227	    -32.39523389	     -0.66126951	      0.94771011	     -0.01187428	      5.48193472	      3.88396533	      1.23750977	    -41.20885075	     14.02181432	      8.61705381	     38.46085905	     -0.62598262	     -4.18986772	    -37.15356541	     14.28728348	     -6.81178614	     -1.20935844	      3.04155062	     10.62299728
      1.56000000	    -10.18601645	      2.27917544	    -32.33656353	     -0.65309469	      0.94856476	     -0.00941384	      6.74193192	      3.30809195	      1.03438506	    -43.62040297	     12.44405043	      8.92987619	     37.96873588	     -0.24141389	     -4.37662056	    -36.94694573	     14.80853654	     -6.98551255	     -0.89775480	      2.71319492	     10.65185255
      1.57000000	    -10.10420512	      2.59199638	    -32.28080851	     -0.64501651	      0.94949027	     -0.00705879	      8.01505240	      2.64263844	      0.83174757	    -46.09084303	     10.96199712	      8.98857036	     37.38116824	      0.20159795	     -4.59097054	    -36.67995306	     15.22961758	     -7.06926516	     -0.69218220	      2.32053258	     10.68625824
